<!DOCTYPE svg PUBLIC "-//W3C//DTD SVG 1.1//EN" "http://www.w3.org/Graphics/SVG/1.1/DTD/svg11.dtd">

<!-- Uploaded to: SVG Repo, www.svgrepo.com, Transformed by: SVG Repo Mixer Tools -->
<svg fill="#c12525" width="66px" height="66px" viewBox="-3.2 -3.2 38.40 38.40" version="1.1" xmlns="http://www.w3.org/2000/svg" stroke="#c12525">
  <defs>
    <filter id="shadow" x="-20%" y="-20%" width="140%" height="140%">
      <feDropShadow dx="0" dy="3" stdDeviation="3" flood-color="#000" flood-opacity="0.4"/>
    </filter>
  </defs>
  <g id="SVGRepo_bgCarrier" stroke-width="0" transform="translate(0,0), scale(1)">
    <rect x="-3.2" y="-3.2" width="38.40" height="38.40" rx="19.2" fill="#e5eaeb" strokewidth="0" stroke="blue" stroke-width="2"/>
  </g>
  <g filter="url(#shadow)">
    <g id="SVGRepo_tracerCarrier" stroke-linecap="round" stroke-linejoin="round" stroke="#CCCCCC" stroke-width="0.384">
      <title>ban</title>
      <path d="M0 16q0 3.264 1.28 6.208t3.392 5.12 5.12 3.424 6.208 1.248 6.208-1.248 5.12-3.424 3.392-5.12 1.28-6.208-1.28-6.208-3.392-5.12-5.088-3.392-6.24-1.28q-3.264 0-6.208 1.28t-5.12 3.392-3.392 5.12-1.28 6.208zM4 16q0-3.776 2.24-6.912l16.704 16.704q-3.168 2.208-6.944 2.208-3.264 0-6.016-1.6t-4.384-4.352-1.6-6.048zM9.056 6.24q3.168-2.24 6.944-2.24 3.264 0 6.016 1.632t4.384 4.352 1.6 6.016q0 3.808-2.24 6.944z"/>
    </g>
    <g id="SVGRepo_iconCarrier">
      <title>ban</title>
      <path d="M0 16q0 3.264 1.28 6.208t3.392 5.12 5.12 3.424 6.208 1.248 6.208-1.248 5.12-3.424 3.392-5.12 1.28-6.208-1.28-6.208-3.392-5.12-5.088-3.392-6.24-1.28q-3.264 0-6.208 1.28t-5.12 3.392-3.392 5.12-1.28 6.208zM4 16q0-3.776 2.24-6.912l16.704 16.704q-3.168 2.208-6.944 2.208-3.264 0-6.016-1.6t-4.384-4.352-1.6-6.048zM9.056 6.24q3.168-2.24 6.944-2.24 3.264 0 6.016 1.632t4.384 4.352 1.6 6.016q0 3.808-2.24 6.944z"/>
    </g>
  </g>
</svg>