<svg fill="#c12525" width="100px" height="100px" viewBox="0 0 150 150" version="1.1" xmlns="http://www.w3.org/2000/svg" stroke="#c12525">
  <defs>
    <filter id="highlight-glow" x="-30%" y="-30%" width="160%" height="160%">
      <feDropShadow dx="0" dy="0" stdDeviation="8" flood-color="#fff" flood-opacity="0.7"/>
    </filter>
  </defs>
  <!-- Transparent padding background -->
  <rect x="0" y="0" width="200" height="200" fill="transparent"/>
  <!-- Center the original icon at (50,50) with size ~38x38 -->
  <g filter="url(#highlight-glow)">
    <g transform="translate(50,50)">
      <g id="SVGRepo_bgCarrier" stroke-width="0">
        <rect x="-19.2" y="-19.2" width="38.4" height="38.4" rx="19.2" fill="#e5eaeb" strokewidth="0"/>
      </g>
      <g id="SVGRepo_tracerCarrier" stroke-linecap="round" stroke-linejoin="round" stroke="#CCCCCC" stroke-width="0.384">
        <title>ban</title>
        <path d="M-19.2 -3.2q0 16.464 6.4 31.328t16.96 25.824 25.6 17.184 31.328 6.336 31.328-6.336 25.6-17.184 16.96-25.824 6.4-31.328-6.4-31.328-16.96-25.824-25.44-16.96-31.488-6.4q-16.464 0-31.328 6.4t-25.6 16.96-16.96 25.824-6.4 31.328zM-11.2 -3.2q0-19.488 11.2-35.712l33.6 33.6q-6.4 11.168-14.56 22.336-19.488 0-35.712-11.2t-11.2-35.712zM-0.96 -30.08q11.36-8.16 24.32-8.16 11.36 0 20.48 5.888t14.56 15.104 5.28 20.48q0 12.224-7.36 22.336z"/>
      </g>
      <g id="SVGRepo_iconCarrier">
        <title>ban</title>
        <path d="M0 16q0 3.264 1.28 6.208t3.392 5.12 5.12 3.424 6.208 1.248 6.208-1.248 5.12-3.424 3.392-5.12 1.28-6.208-1.28-6.208-3.392-5.12-5.088-3.392-6.24-1.28q-3.264 0-6.208 1.28t-5.12 3.392-3.392 5.12-1.28 6.208zM4 16q0-3.776 2.24-6.912l16.704 16.704q-3.168 2.208-6.944 2.208-3.264 0-6.016-1.6t-4.384-4.352-1.6-6.048zM9.056 6.24q3.168-2.24 6.944-2.24 3.264 0 6.016 1.632t4.384 4.352 1.6 6.016q0 3.808-2.24 6.944z"/>
      </g>
    </g>
  </g>
</svg> 