<!DOCTYPE svg PUBLIC "-//W3C//DTD SVG 1.1//EN" "http://www.w3.org/Graphics/SVG/1.1/DTD/svg11.dtd">

<!-- Uploaded to: SVG Repo, www.svgrepo.com, Transformed by: SVG Repo Mixer Tools -->
<svg width="64px" height="64px" viewBox="-5.76 -5.76 43.52 43.52" xmlns="http://www.w3.org/2000/svg" fill="none" transform="rotate(0)">
  <defs>
    <filter id="shadow" x="-20%" y="-20%" width="140%" height="140%">
      <feDropShadow dx="0" dy="3" stdDeviation="3" flood-color="#000" flood-opacity="0.4"/>
    </filter>
  </defs>
  <g id="SVGRepo_bgCarrier" stroke-width="0">
    <rect x="-5.76" y="-5.76" width="43.52" height="43.52" rx="21.76" fill="#69a4c9" strokewidth="0"/>
  </g>
  <g filter="url(#shadow)">
    <g id="SVGRepo_tracerCarrier" stroke-linecap="round" stroke-linejoin="round" stroke="#d07171" stroke-width="0.384"/>
    <g id="SVGRepo_iconCarrier">
      <path stroke="#252527" stroke-linecap="round" stroke-linejoin="round" stroke-width="1.7920000000000003" d="M27 7H5a2 2 0 00-2 2v14a2 2 0 002 2h22a2 2 0 002-2V9a2 2 0 00-2-2z"/>
      <path stroke="#252527" stroke-linecap="round" stroke-linejoin="round" stroke-width="1.7920000000000003" d="M7 13l3 6.5 3-6.5M16.5 13v6.5M20.5 17.275h1.48c.651 0 1.277-.275 1.721-.75a2.338 2.338 0 00.215-2.932 1.394 1.394 0 00-1.14-.593H20.5v4.275zm0 0V19.5"/>
    </g>
  </g>
</svg>